<mxfile host="65bd71144e">
    <diagram id="FepPx-dPM-DVNltaWmlq" name="Algoritma menentukan nilai terbesar">
        <mxGraphModel dx="662" dy="467" grid="1" gridSize="10" guides="1" tooltips="1" connect="1" arrows="1" fold="1" page="1" pageScale="1" pageWidth="850" pageHeight="1100" math="0" shadow="0">
            <root>
                <mxCell id="0"/>
                <mxCell id="1" parent="0"/>
                <mxCell id="2" value="Algoritma Menentukan Nilai Terbesar" style="text;html=1;strokeColor=none;fillColor=none;align=left;verticalAlign=middle;whiteSpace=wrap;rounded=0;" vertex="1" parent="1">
                    <mxGeometry x="20" y="10" width="240" height="30" as="geometry"/>
                </mxCell>
                <mxCell id="3" value="1. Mulai&lt;br&gt;2. input nilai X dan Y&lt;br&gt;3. cek X &amp;gt; Y&lt;br&gt;4. Jika benar maka nilai X terbesar&lt;br&gt;5. Jika salah maka nilai Y terbesar&lt;br&gt;6. Selesai" style="text;html=1;strokeColor=none;fillColor=none;align=left;verticalAlign=middle;whiteSpace=wrap;rounded=0;" vertex="1" parent="1">
                    <mxGeometry x="20" y="40" width="310" height="100" as="geometry"/>
                </mxCell>
            </root>
        </mxGraphModel>
    </diagram>
    <diagram id="_awz0XE-jFNvCmfctCT8" name="Algoritma penentuan ganjil atau genap">
        <mxGraphModel dx="662" dy="467" grid="1" gridSize="10" guides="1" tooltips="1" connect="1" arrows="1" fold="1" page="1" pageScale="1" pageWidth="850" pageHeight="1100" math="0" shadow="0">
            <root>
                <mxCell id="0"/>
                <mxCell id="1" parent="0"/>
                <mxCell id="fpNfdreIr9eLA4HEUliP-1" value="Algoritma penentuan ganjil atau genap" style="text;html=1;strokeColor=none;fillColor=none;align=left;verticalAlign=middle;whiteSpace=wrap;rounded=0;" vertex="1" parent="1">
                    <mxGeometry x="20" y="10" width="210" height="30" as="geometry"/>
                </mxCell>
                <mxCell id="fpNfdreIr9eLA4HEUliP-2" value="1. Mulai&lt;br&gt;2. Input X&amp;nbsp;&lt;br&gt;3. Jika X / 2 memiliki % 0 atau habis&lt;br&gt;4. Jika benar maka X bilangan genap&lt;br&gt;5. Jika tidak maka X bilangan ganjil&lt;br&gt;6. Selesai" style="text;html=1;strokeColor=none;fillColor=none;align=left;verticalAlign=middle;whiteSpace=wrap;rounded=0;" vertex="1" parent="1">
                    <mxGeometry x="20" y="40" width="280" height="100" as="geometry"/>
                </mxCell>
            </root>
        </mxGraphModel>
    </diagram>
</mxfile>